$MeshFormat
4.1 0 8
$EndMeshFormat
$PhysicalNames
6
1 1 "Outer_1"
1 2 "Outer_2"
1 3 "Outer_3"
1 4 "Outer_4"
1 5 "Outer_5"
1 6 "Outer_6"
$EndPhysicalNames
$Entities
18 29 12 0
1 0.32 0.5 0 0 
2 0 0.5 0 0 
3 0.35 0.35 0 0 
4 0.3875 0.35 0 0 
5 0.2 0.1 0 0 
6 0.2 0.9 0 0 
7 0.38 0.66 0 0 
8 0.3 0.6 0 0 
9 0.575 0.35 0 0 
10 0.7 0.1 0 0 
11 0.7 0.9 0 0 
12 0.5909090909090908 0.6818181818181819 0 0 
13 0.5 0.75 0 0 
14 0.5 0.5 0 0 
15 0.65 0.35 0 0 
16 0.6799999999999999 0.5 0 0 
17 1 0.5 0 0 
18 0.7 0.6 0 0 
1 -1.000000000028756e-07 0.4999999 -1e-07 0.3200001 0.5000000999999999 1e-07 1 1 2 1 -2 
2 0.3199999 0.3499999 -1e-07 0.3500001 0.5000000999999999 1e-07 1 2 2 1 -3 
3 0.3499999 0.3499999 -1e-07 0.3875001 0.3500001 1e-07 1 3 2 3 -4 
4 0.1999999 0.09999989999999997 -1e-07 0.3875001 0.3500001 1e-07 1 4 2 4 -5 
5 -1.000000000028756e-07 0.09999989999999997 -1e-07 0.2000001 0.5000000999999999 1e-07 1 5 2 2 -5 
6 -1.000000000028756e-07 0.4999999 -1e-07 0.2000001 0.9000001 1e-07 1 6 2 6 -2 
7 0.1999999 0.6599999000000001 -1e-07 0.3800001 0.9000001 1e-07 0 2 7 -6 
8 0.2999999 0.5999999 -1e-07 0.3800001 0.6600001 1e-07 0 2 7 -8 
9 0.2999999 0.4999999 -1e-07 0.3200001 0.6000000999999999 1e-07 0 2 8 -1 
10 0.3874999 0.3499999 -1e-07 0.5750000999999999 0.3500001 1e-07 0 2 4 -9 
11 0.5749999 0.09999989999999997 -1e-07 0.7000000999999999 0.3500001 1e-07 0 2 9 -10 
12 0.1999999 0.0999999 -1e-07 0.7000000999999999 0.1000001 1e-07 0 2 5 -10 
13 0.1999999 0.8999999000000001 -1e-07 0.7000000999999999 0.9000001 1e-07 0 2 11 -6 
14 0.590908990909091 0.6818180818181819 -1e-07 0.7000000999999999 0.9000001 1e-07 0 2 12 -11 
15 0.4999999 0.6818180818181819 -1e-07 0.5909091909090908 0.7500000999999999 1e-07 0 2 12 -13 
16 0.3799999 0.6599999000000001 -1e-07 0.5000000999999999 0.7500000999999999 1e-07 0 2 13 -7 
17 0.3799999 0.4999999 -1e-07 0.5000000999999999 0.6600001 1e-07 0 2 14 -7 
18 0.3199999 0.4999999 -1e-07 0.5000000999999999 0.5000000999999999 1e-07 0 2 14 -1 
19 0.3874999 0.3499999 -1e-07 0.5000000999999999 0.5000000999999999 1e-07 0 2 14 -4 
20 0.5749999 0.3499999 -1e-07 0.6500001 0.3500001 1e-07 0 2 9 -15 
21 0.6499999000000001 0.3499999 -1e-07 0.6800000999999999 0.5000000999999999 1e-07 0 2 15 -16 
22 0.6799999 0.4999999 -1e-07 1.0000001 0.5000000999999999 1e-07 0 2 16 -17 
23 0.6999999 0.0999999 -1e-07 1.0000001 0.5000000999999999 1e-07 0 2 10 -17 
24 0.4999999 0.3499999 -1e-07 0.5750000999999999 0.5000000999999999 1e-07 0 2 14 -9 
25 0.6999999 0.4999999 -1e-07 1.0000001 0.9000001 1e-07 0 2 17 -11 
26 0.6799999 0.4999999 -1e-07 0.7000000999999999 0.6000000999999999 1e-07 0 2 16 -18 
27 0.5909089909090909 0.5999999 -1e-07 0.7000000999999999 0.6818182818181818 1e-07 0 2 18 -12 
28 0.4999999 0.4999999 -1e-07 0.5909091909090909 0.6818182818181818 1e-07 0 2 14 -12 
29 0.4999999 0.4999999 -1e-07 0.6800000999999999 0.5000000999999999 1e-07 0 2 14 -16 
1 -1.000000000028756e-07 0.09999989999999997 -1e-07 0.3875001 0.5000000999999999 1e-07 0 5 1 5 -4 -3 -2 
2 -1.000000000028756e-07 0.4999999 -1e-07 0.3800001 0.9000001 1e-07 0 5 6 -1 -9 -8 7 
3 0.1999999 0.09999989999999997 -1e-07 0.7000000999999999 0.3500001 1e-07 0 4 4 12 -11 -10 
4 0.1999999 0.6599999000000001 -1e-07 0.7000000999999999 0.9000001 1e-07 0 5 13 -7 -16 -15 14 
5 0.2999999 0.4999999 -1e-07 0.5000000999999999 0.6600001 1e-07 0 4 9 -18 17 8 
6 0.3199999 0.3499999 -1e-07 0.5000000999999999 0.5000000999999999 1e-07 0 4 18 2 3 -19 
7 0.5749999 0.09999989999999997 -1e-07 1.0000001 0.5000000999999999 1e-07 0 5 11 23 -22 -21 -20 
8 0.3874999 0.3499999 -1e-07 0.5750000999999999 0.5000000999999999 1e-07 0 3 19 10 -24 
9 0.5909089909090909 0.4999999 -1e-07 1.0000001 0.9000001 1e-07 0 5 25 -14 -27 -26 22 
10 0.3799999 0.4999999 -1e-07 0.5909091909090909 0.7500000999999999 1e-07 0 4 16 -17 28 15 
11 0.4999999 0.3499999 -1e-07 0.6800000999999999 0.5000000999999999 1e-07 0 4 -29 24 20 21 
12 0.4999999 0.4999999 -1e-07 0.7000000999999999 0.6818182818181818 1e-07 0 4 -28 29 26 27 
$EndEntities
$Nodes
12 10 1 10
0 1 0 1
1
0.32 0.5 0
0 2 0 1
2
0 0.5 0
0 3 0 1
3
0.35 0.35 0
0 4 0 1
4
0.3875 0.35 0
0 5 0 1
5
0.2 0.1 0
0 6 0 1
6
0.2 0.9 0
1 1 0 0
1 2 0 0
1 3 0 0
1 4 0 0
1 5 0 2
7
8
0.06666666666666661 0.3666666666666668 0
0.1333333333333332 0.2333333333333335 0
1 6 0 2
9
10
0.1333333333333334 0.7666666666666668 0
0.06666666666666676 0.6333333333333335 0
$EndNodes
$Elements
6 10 1 10
1 1 1 1
1 1 2 
1 2 1 1
2 1 3 
1 3 1 1
3 3 4 
1 4 1 1
4 4 5 
1 5 1 3
5 2 7 
6 7 8 
7 8 5 
1 6 1 3
8 6 9 
9 9 10 
10 10 2 
$EndElements
