$MeshFormat
4.1 0 8
$EndMeshFormat
$PhysicalNames
7
1 2 "Outer_1"
1 3 "Outer_2"
1 4 "Outer_3"
1 5 "Outer_4"
1 6 "Outer_5"
1 7 "Outer_6"
2 1 "Domain"
$EndPhysicalNames
$Entities
18 29 12 0
1 0.32 0.5 0 0 
2 0 0.5 0 0 
3 0.35 0.35 0 0 
4 0.3875 0.35 0 0 
5 0.2 0.1 0 0 
6 0.2 0.9 0 0 
7 0.38 0.66 0 0 
8 0.3 0.6 0 0 
9 0.575 0.35 0 0 
10 0.7 0.1 0 0 
11 0.7 0.9 0 0 
12 0.5909090909090908 0.6818181818181819 0 0 
13 0.5 0.75 0 0 
14 0.5 0.5 0 0 
15 0.65 0.35 0 0 
16 0.6799999999999999 0.5 0 0 
17 1 0.5 0 0 
18 0.7 0.6 0 0 
1 -1.000000000028756e-07 0.4999999 -1e-07 0.3200001 0.5000000999999999 1e-07 1 2 2 1 -2 
2 0.3199999 0.3499999 -1e-07 0.3500001 0.5000000999999999 1e-07 1 3 2 1 -3 
3 0.3499999 0.3499999 -1e-07 0.3875001 0.3500001 1e-07 1 4 2 3 -4 
4 0.1999999 0.09999989999999997 -1e-07 0.3875001 0.3500001 1e-07 1 5 2 4 -5 
5 -1.000000000028756e-07 0.09999989999999997 -1e-07 0.2000001 0.5000000999999999 1e-07 1 6 2 2 -5 
6 -1.000000000028756e-07 0.4999999 -1e-07 0.2000001 0.9000001 1e-07 1 7 2 6 -2 
7 0.1999999 0.6599999000000001 -1e-07 0.3800001 0.9000001 1e-07 0 2 7 -6 
8 0.2999999 0.5999999 -1e-07 0.3800001 0.6600001 1e-07 0 2 7 -8 
9 0.2999999 0.4999999 -1e-07 0.3200001 0.6000000999999999 1e-07 0 2 8 -1 
10 0.3874999 0.3499999 -1e-07 0.5750000999999999 0.3500001 1e-07 0 2 4 -9 
11 0.5749999 0.09999989999999997 -1e-07 0.7000000999999999 0.3500001 1e-07 0 2 9 -10 
12 0.1999999 0.0999999 -1e-07 0.7000000999999999 0.1000001 1e-07 0 2 5 -10 
13 0.1999999 0.8999999000000001 -1e-07 0.7000000999999999 0.9000001 1e-07 0 2 11 -6 
14 0.590908990909091 0.6818180818181819 -1e-07 0.7000000999999999 0.9000001 1e-07 0 2 12 -11 
15 0.4999999 0.6818180818181819 -1e-07 0.5909091909090908 0.7500000999999999 1e-07 0 2 12 -13 
16 0.3799999 0.6599999000000001 -1e-07 0.5000000999999999 0.7500000999999999 1e-07 0 2 13 -7 
17 0.3799999 0.4999999 -1e-07 0.5000000999999999 0.6600001 1e-07 0 2 14 -7 
18 0.3199999 0.4999999 -1e-07 0.5000000999999999 0.5000000999999999 1e-07 0 2 14 -1 
19 0.3874999 0.3499999 -1e-07 0.5000000999999999 0.5000000999999999 1e-07 0 2 14 -4 
20 0.5749999 0.3499999 -1e-07 0.6500001 0.3500001 1e-07 0 2 9 -15 
21 0.6499999000000001 0.3499999 -1e-07 0.6800000999999999 0.5000000999999999 1e-07 0 2 15 -16 
22 0.6799999 0.4999999 -1e-07 1.0000001 0.5000000999999999 1e-07 0 2 16 -17 
23 0.6999999 0.0999999 -1e-07 1.0000001 0.5000000999999999 1e-07 0 2 10 -17 
24 0.4999999 0.3499999 -1e-07 0.5750000999999999 0.5000000999999999 1e-07 0 2 14 -9 
25 0.6999999 0.4999999 -1e-07 1.0000001 0.9000001 1e-07 0 2 17 -11 
26 0.6799999 0.4999999 -1e-07 0.7000000999999999 0.6000000999999999 1e-07 0 2 16 -18 
27 0.5909089909090909 0.5999999 -1e-07 0.7000000999999999 0.6818182818181818 1e-07 0 2 18 -12 
28 0.4999999 0.4999999 -1e-07 0.5909091909090909 0.6818182818181818 1e-07 0 2 14 -12 
29 0.4999999 0.4999999 -1e-07 0.6800000999999999 0.5000000999999999 1e-07 0 2 14 -16 
1 -1.000000000028756e-07 0.09999989999999997 -1e-07 0.3875001 0.5000000999999999 1e-07 1 1 5 1 5 -4 -3 -2 
2 -1.000000000028756e-07 0.4999999 -1e-07 0.3800001 0.9000001 1e-07 1 1 5 6 -1 -9 -8 7 
3 0.1999999 0.09999989999999997 -1e-07 0.7000000999999999 0.3500001 1e-07 1 1 4 4 12 -11 -10 
4 0.1999999 0.6599999000000001 -1e-07 0.7000000999999999 0.9000001 1e-07 1 1 5 13 -7 -16 -15 14 
5 0.2999999 0.4999999 -1e-07 0.5000000999999999 0.6600001 1e-07 1 1 4 9 -18 17 8 
6 0.3199999 0.3499999 -1e-07 0.5000000999999999 0.5000000999999999 1e-07 1 1 4 18 2 3 -19 
7 0.5749999 0.09999989999999997 -1e-07 1.0000001 0.5000000999999999 1e-07 1 1 5 11 23 -22 -21 -20 
8 0.3874999 0.3499999 -1e-07 0.5750000999999999 0.5000000999999999 1e-07 1 1 3 19 10 -24 
9 0.5909089909090909 0.4999999 -1e-07 1.0000001 0.9000001 1e-07 1 1 5 25 -14 -27 -26 22 
10 0.3799999 0.4999999 -1e-07 0.5909091909090909 0.7500000999999999 1e-07 1 1 4 16 -17 28 15 
11 0.4999999 0.3499999 -1e-07 0.6800000999999999 0.5000000999999999 1e-07 1 1 4 -29 24 20 21 
12 0.4999999 0.4999999 -1e-07 0.7000000999999999 0.6818182818181818 1e-07 1 1 4 -28 29 26 27 
$EndEntities
$Nodes
41 43 1 43
0 1 0 1
1
0.32 0.5 0
0 2 0 1
2
0 0.5 0
0 3 0 1
3
0.35 0.35 0
0 4 0 1
4
0.3875 0.35 0
0 5 0 1
5
0.2 0.1 0
0 6 0 1
6
0.2 0.9 0
0 7 0 1
7
0.38 0.66 0
0 8 0 1
8
0.3 0.6 0
0 9 0 1
9
0.575 0.35 0
0 10 0 1
10
0.7 0.1 0
0 11 0 1
11
0.7 0.9 0
0 12 0 1
12
0.5909090909090908 0.6818181818181819 0
0 13 0 1
13
0.5 0.75 0
0 14 0 1
14
0.5 0.5 0
0 15 0 1
15
0.65 0.35 0
0 16 0 1
16
0.6799999999999999 0.5 0
0 17 0 1
17
1 0.5 0
0 18 0 1
18
0.7 0.6 0
1 1 0 0
1 2 0 0
1 3 0 0
1 4 0 0
1 5 0 2
19
20
0.06666666666666661 0.3666666666666668 0
0.1333333333333332 0.2333333333333335 0
1 6 0 2
21
22
0.1333333333333334 0.7666666666666668 0
0.06666666666666676 0.6333333333333335 0
1 10 0 1
23
0.4812499999999997 0.35 0
1 12 0 2
24
25
0.3666666666666667 0.1 0
0.5333333333333333 0.1 0
1 13 0 2
26
27
0.5333333333333333 0.9 0
0.3666666666666666 0.9 0
1 23 0 2
28
29
0.7999999999999999 0.2333333333333334 0
0.9 0.3666666666666667 0
1 25 0 2
30
31
0.9 0.6333333333333333 0
0.7999999999999999 0.7666666666666667 0
2 1 0 2
32
33
0.2078894704433495 0.2862717716396906 0
0.1889112274220032 0.4005876876612715 0
2 2 0 1
34
0.1929381276320053 0.6389536767087789 0
2 3 0 2
35
36
0.4251480304240612 0.2147882437359636 0
0.5429462727514789 0.2229576487471927 0
2 4 0 1
37
0.3897959183673469 0.8017006802721088 0
2 5 0 0
2 6 0 0
2 7 0 2
38
39
0.7939196450962125 0.4054204960760826 0
0.747195503578256 0.3053984036506139 0
2 8 0 0
2 9 0 2
40
41
0.7168426160980171 0.721065515533109 0
0.7844703092495207 0.6535551338886114 0
2 10 0 1
42
0.4886363636363636 0.6401515151515152 0
2 11 0 1
43
0.6095715326947105 0.4327667638483965 0
2 12 0 0
$EndNodes
$Elements
18 76 1 76
1 1 1 1
1 1 2 
1 2 1 1
2 1 3 
1 3 1 1
3 3 4 
1 4 1 1
4 4 5 
1 5 1 3
5 2 19 
6 19 20 
7 20 5 
1 6 1 3
8 6 21 
9 21 22 
10 22 2 
2 1 2 9
11 3 33 32 
12 32 33 19 
13 5 32 20 
14 20 32 19 
15 1 33 3 
16 3 32 5 
17 2 33 1 
18 19 33 2 
19 5 4 3 
2 2 2 7
20 22 34 21 
21 1 34 2 
22 8 34 1 
23 2 34 22 
24 7 6 21 
25 7 34 8 
26 21 34 7 
2 3 2 9
27 25 35 24 
28 35 36 23 
29 10 36 25 
30 25 36 35 
31 23 36 9 
32 4 35 23 
33 24 35 5 
34 9 36 10 
35 5 35 4 
2 4 2 7
36 26 37 13 
37 6 37 27 
38 27 37 26 
39 13 37 7 
40 7 37 6 
41 12 11 26 
42 12 26 13 
2 5 2 2
43 8 1 7 
44 7 1 14 
2 6 2 2
45 4 1 3 
46 14 1 4 
2 7 2 9
47 15 38 16 
48 38 39 29 
49 29 39 28 
50 15 39 38 
51 15 9 10 
52 16 38 17 
53 10 39 15 
54 28 39 10 
55 17 38 29 
2 8 2 2
56 23 14 4 
57 14 23 9 
2 9 2 9
58 11 40 31 
59 18 40 12 
60 31 41 30 
61 18 41 40 
62 40 41 31 
63 12 40 11 
64 16 17 30 
65 16 41 18 
66 30 41 16 
2 10 2 4
67 12 42 14 
68 14 42 7 
69 7 42 13 
70 13 42 12 
2 11 2 4
71 16 43 15 
72 9 43 14 
73 14 43 16 
74 15 43 9 
2 12 2 2
75 16 12 14 
76 18 12 16 
$EndElements
