$MeshFormat
4.1 0 8
$EndMeshFormat
$PhysicalNames
6
1 1 "Outer_1"
1 2 "Outer_2"
1 3 "Outer_3"
1 4 "Outer_4"
1 5 "Outer_5"
1 6 "Outer_6"
$EndPhysicalNames
$Entities
18 29 12 0
1 0.32 0.5 0 0 
2 0 0.5 0 0 
3 0.35 0.35 0 0 
4 0.3875 0.35 0 0 
5 0.2 0.1 0 0 
6 0.2 0.9 0 0 
7 0.38 0.66 0 0 
8 0.3 0.6 0 0 
9 0.575 0.35 0 0 
10 0.7 0.1 0 0 
11 0.7 0.9 0 0 
12 0.5909090909090908 0.6818181818181819 0 0 
13 0.5 0.75 0 0 
14 0.5 0.5 0 0 
15 0.65 0.35 0 0 
16 0.6799999999999999 0.5 0 0 
17 1 0.5 0 0 
18 0.7 0.6 0 0 
1 -1.000000000028756e-07 0.4999999 -1e-07 0.3200001 0.5000000999999999 1e-07 1 1 2 1 -2 
2 0.3199999 0.3499999 -1e-07 0.3500001 0.5000000999999999 1e-07 1 2 2 1 -3 
3 0.3499999 0.3499999 -1e-07 0.3875001 0.3500001 1e-07 1 3 2 3 -4 
4 0.1999999 0.09999989999999997 -1e-07 0.3875001 0.3500001 1e-07 1 4 2 4 -5 
5 -1.000000000028756e-07 0.09999989999999997 -1e-07 0.2000001 0.5000000999999999 1e-07 1 5 2 2 -5 
6 -1.000000000028756e-07 0.4999999 -1e-07 0.2000001 0.9000001 1e-07 1 6 2 6 -2 
7 0.1999999 0.6599999000000001 -1e-07 0.3800001 0.9000001 1e-07 0 2 7 -6 
8 0.2999999 0.5999999 -1e-07 0.3800001 0.6600001 1e-07 0 2 7 -8 
9 0.2999999 0.4999999 -1e-07 0.3200001 0.6000000999999999 1e-07 0 2 8 -1 
10 0.3874999 0.3499999 -1e-07 0.5750000999999999 0.3500001 1e-07 0 2 4 -9 
11 0.5749999 0.09999989999999997 -1e-07 0.7000000999999999 0.3500001 1e-07 0 2 9 -10 
12 0.1999999 0.0999999 -1e-07 0.7000000999999999 0.1000001 1e-07 0 2 5 -10 
13 0.1999999 0.8999999000000001 -1e-07 0.7000000999999999 0.9000001 1e-07 0 2 11 -6 
14 0.590908990909091 0.6818180818181819 -1e-07 0.7000000999999999 0.9000001 1e-07 0 2 12 -11 
15 0.4999999 0.6818180818181819 -1e-07 0.5909091909090908 0.7500000999999999 1e-07 0 2 12 -13 
16 0.3799999 0.6599999000000001 -1e-07 0.5000000999999999 0.7500000999999999 1e-07 0 2 13 -7 
17 0.3799999 0.4999999 -1e-07 0.5000000999999999 0.6600001 1e-07 0 2 14 -7 
18 0.3199999 0.4999999 -1e-07 0.5000000999999999 0.5000000999999999 1e-07 0 2 14 -1 
19 0.3874999 0.3499999 -1e-07 0.5000000999999999 0.5000000999999999 1e-07 0 2 14 -4 
20 0.5749999 0.3499999 -1e-07 0.6500001 0.3500001 1e-07 0 2 9 -15 
21 0.6499999000000001 0.3499999 -1e-07 0.6800000999999999 0.5000000999999999 1e-07 0 2 15 -16 
22 0.6799999 0.4999999 -1e-07 1.0000001 0.5000000999999999 1e-07 0 2 16 -17 
23 0.6999999 0.0999999 -1e-07 1.0000001 0.5000000999999999 1e-07 0 2 10 -17 
24 0.4999999 0.3499999 -1e-07 0.5750000999999999 0.5000000999999999 1e-07 0 2 14 -9 
25 0.6999999 0.4999999 -1e-07 1.0000001 0.9000001 1e-07 0 2 17 -11 
26 0.6799999 0.4999999 -1e-07 0.7000000999999999 0.6000000999999999 1e-07 0 2 16 -18 
27 0.5909089909090909 0.5999999 -1e-07 0.7000000999999999 0.6818182818181818 1e-07 0 2 18 -12 
28 0.4999999 0.4999999 -1e-07 0.5909091909090909 0.6818182818181818 1e-07 0 2 14 -12 
29 0.4999999 0.4999999 -1e-07 0.6800000999999999 0.5000000999999999 1e-07 0 2 14 -16 
1 -1.000000000028756e-07 0.09999989999999997 -1e-07 0.3875001 0.5000000999999999 1e-07 0 5 1 5 -4 -3 -2 
2 -1.000000000028756e-07 0.4999999 -1e-07 0.3800001 0.9000001 1e-07 0 5 6 -1 -9 -8 7 
3 0.1999999 0.09999989999999997 -1e-07 0.7000000999999999 0.3500001 1e-07 0 4 4 12 -11 -10 
4 0.1999999 0.6599999000000001 -1e-07 0.7000000999999999 0.9000001 1e-07 0 5 13 -7 -16 -15 14 
5 0.2999999 0.4999999 -1e-07 0.5000000999999999 0.6600001 1e-07 0 4 9 -18 17 8 
6 0.3199999 0.3499999 -1e-07 0.5000000999999999 0.5000000999999999 1e-07 0 4 18 2 3 -19 
7 0.5749999 0.09999989999999997 -1e-07 1.0000001 0.5000000999999999 1e-07 0 5 11 23 -22 -21 -20 
8 0.3874999 0.3499999 -1e-07 0.5750000999999999 0.5000000999999999 1e-07 0 3 19 10 -24 
9 0.5909089909090909 0.4999999 -1e-07 1.0000001 0.9000001 1e-07 0 5 25 -14 -27 -26 22 
10 0.3799999 0.4999999 -1e-07 0.5909091909090909 0.7500000999999999 1e-07 0 4 16 -17 28 15 
11 0.4999999 0.3499999 -1e-07 0.6800000999999999 0.5000000999999999 1e-07 0 4 -29 24 20 21 
12 0.4999999 0.4999999 -1e-07 0.7000000999999999 0.6818182818181818 1e-07 0 4 -28 29 26 27 
$EndEntities
$Nodes
12 79 1 79
0 1 0 1
1
0.32 0.5 0
0 2 0 1
2
0 0.5 0
0 3 0 1
3
0.35 0.35 0
0 4 0 1
4
0.3875 0.35 0
0 5 0 1
5
0.2 0.1 0
0 6 0 1
6
0.2 0.9 0
1 1 0 24
7
8
9
10
11
12
13
14
15
16
17
18
19
20
21
22
23
24
25
26
27
28
29
30
0.3100185903337371 0.5 0
0.3000371806674742 0.5 0
0.2900557710012113 0.5 0
0.2800743613349483 0.5 0
0.2700929516686854 0.5 0
0.2601115420024225 0.5 0
0.2501301323361595 0.5 0
0.2401487226698966 0.5 0
0.2301673130036337 0.5 0
0.2201859033373708 0.5 0
0.2102044936711079 0.5 0
0.200223084004845 0.5 0
0.190241674338582 0.5 0
0.1802602646723191 0.5 0
0.1702788550060562 0.5 0
0.1602974453397933 0.5 0
0.1503160356735304 0.5 0
0.1403346260072674 0.5 0
0.1303532163410045 0.5 0
0.1203718066747416 0.5 0
0.1087679608526408 0.5 0
0.09285352457693508 0.5 0
0.07102310055217825 0.5 0
0.04107749618779266 0.5 0
1 2 0 15
31
32
33
34
35
36
37
38
39
40
41
42
43
44
45
0.321875 0.490625 0
0.32375 0.48125 0
0.3256249999999999 0.471875 0
0.3275 0.4625 0
0.329375 0.4531250000000001 0
0.3312499999999999 0.4437500000000001 0
0.3331249999999999 0.4343750000000002 0
0.335 0.4250000000000002 0
0.3368749999999999 0.4156250000000001 0
0.3387499999999999 0.4062500000000001 0
0.340625 0.3968750000000001 0
0.3425 0.3875000000000001 0
0.344375 0.378125 0
0.3462499999999999 0.36875 0
0.348125 0.359375 0
1 3 0 3
46
47
48
0.3593749999999999 0.35 0
0.36875 0.35 0
0.378125 0.35 0
1 4 0 13
49
50
51
52
53
54
55
56
57
58
59
60
61
0.3815393060672521 0.3420524080896694 0
0.3755786121345042 0.3341048161793388 0
0.3696179182017563 0.3261572242690083 0
0.3636572242690084 0.3182096323586778 0
0.3576965303362605 0.3102620404483473 0
0.3517351920511254 0.3023135894015004 0
0.3450171397488088 0.2933561863317451 0
0.3365836893832022 0.2821115858442695 0
0.3258961001453498 0.2678614668604663 0
0.3122133615437821 0.2496178153917094 0
0.2945094202399276 0.2260125603199035 0
0.2713579264846685 0.1951439019795579 0
0.2407740160890072 0.1543653547853429 0
1 5 0 9
62
63
64
65
66
67
68
69
70
0.01951499210176793 0.4609700157964641 0
0.03715972590333607 0.4256805481933278 0
0.053727174538032 0.392545650923936 0
0.06989268053345024 0.3602146389330995 0
0.08628804147702429 0.3274239170459514 0
0.1035699294781953 0.2928601410436094 0
0.122491570138028 0.2550168597239441 0
0.1439866983900147 0.2120266032199706 0
0.1692752080969573 0.1614495838060854 0
1 6 0 9
71
72
73
74
75
76
77
78
79
0.1692752080969578 0.8385504161939156 0
0.1439866983900151 0.7879733967800302 0
0.1224915701380284 0.7449831402760567 0
0.1035699294781956 0.7071398589563913 0
0.08628804147702458 0.6725760829540491 0
0.06989268053345044 0.6397853610669009 0
0.05372717453803222 0.6074543490760644 0
0.0371597259033363 0.5743194518066725 0
0.01951499210176807 0.5390299842035362 0
$EndNodes
$Elements
6 79 1 79
1 1 1 25
1 1 7 
2 7 8 
3 8 9 
4 9 10 
5 10 11 
6 11 12 
7 12 13 
8 13 14 
9 14 15 
10 15 16 
11 16 17 
12 17 18 
13 18 19 
14 19 20 
15 20 21 
16 21 22 
17 22 23 
18 23 24 
19 24 25 
20 25 26 
21 26 27 
22 27 28 
23 28 29 
24 29 30 
25 30 2 
1 2 1 16
26 1 31 
27 31 32 
28 32 33 
29 33 34 
30 34 35 
31 35 36 
32 36 37 
33 37 38 
34 38 39 
35 39 40 
36 40 41 
37 41 42 
38 42 43 
39 43 44 
40 44 45 
41 45 3 
1 3 1 4
42 3 46 
43 46 47 
44 47 48 
45 48 4 
1 4 1 14
46 4 49 
47 49 50 
48 50 51 
49 51 52 
50 52 53 
51 53 54 
52 54 55 
53 55 56 
54 56 57 
55 57 58 
56 58 59 
57 59 60 
58 60 61 
59 61 5 
1 5 1 10
60 2 62 
61 62 63 
62 63 64 
63 64 65 
64 65 66 
65 66 67 
66 67 68 
67 68 69 
68 69 70 
69 70 5 
1 6 1 10
70 6 71 
71 71 72 
72 72 73 
73 73 74 
74 74 75 
75 75 76 
76 76 77 
77 77 78 
78 78 79 
79 79 2 
$EndElements
