$MeshFormat
4.1 0 8
$EndMeshFormat
$PhysicalNames
7
1 2 "Outer_1"
1 3 "Outer_2"
1 4 "Outer_3"
1 5 "Outer_4"
1 6 "Outer_5"
1 7 "Outer_6"
2 1 "Domain"
$EndPhysicalNames
$Entities
7 12 6 0
101 0.5 0.5 0 0 
102 0 0.5 0 0 
103 0.2 0.1 0 0 
104 0.2 0.9 0 0 
105 0.7 0.1 0 0 
106 0.7 0.9 0 0 
107 1 0.5 0 0 
101 -9.999999997511999e-08 0.4999999 -1e-07 0.5000000999999999 0.5000000999999999 1e-07 0 2 101 -102 
102 0.1999999 0.09999989999999997 -1e-07 0.5000000999999999 0.5000000999999999 1e-07 0 2 101 -103 
103 0.4999999 0.09999989999999997 -1e-07 0.7000000999999999 0.5000000999999999 1e-07 0 2 101 -105 
104 0.4999999 0.4999999 -1e-07 1.0000001 0.5000000999999999 1e-07 0 2 101 -107 
105 0.4999999 0.4999999 -1e-07 0.7000000999999999 0.9000001 1e-07 0 2 101 -106 
106 0.1999999 0.4999999 -1e-07 0.5000000999999999 0.9000001 1e-07 0 2 101 -104 
107 -1.000000000028756e-07 0.09999989999999997 -1e-07 0.2000001 0.5000000999999999 1e-07 0 2 102 -103 
108 -1.000000000028756e-07 0.4999999 -1e-07 0.2000001 0.9000001 1e-07 0 2 104 -102 
109 0.1999999 0.0999999 -1e-07 0.7000000999999999 0.1000001 1e-07 0 2 103 -105 
110 0.1999999 0.8999999000000001 -1e-07 0.7000000999999999 0.9000001 1e-07 0 2 106 -104 
111 0.6999999 0.0999999 -1e-07 1.0000001 0.5000000999999999 1e-07 0 2 105 -107 
112 0.6999999 0.4999999 -1e-07 1.0000001 0.9000001 1e-07 0 2 107 -106 
1 -9.999999997511999e-08 0.09999989999999997 -1e-07 0.5000000999999999 0.5000000999999999 1e-07 1 1 3 101 107 -102 
2 -9.999999997511999e-08 0.4999999 -1e-07 0.5000000999999999 0.9000001 1e-07 1 1 3 108 -101 106 
3 0.1999999 0.09999989999999997 -1e-07 0.7000000999999999 0.5000000999999999 1e-07 1 1 3 102 109 -103 
4 0.1999999 0.4999999 -1e-07 0.7000000999999999 0.9000001 1e-07 1 1 3 110 -106 105 
5 0.4999999 0.09999989999999997 -1e-07 1.0000001 0.5000000999999999 1e-07 1 1 3 -104 103 111 
6 0.4999999 0.4999999 -1e-07 1.0000001 0.9000001 1e-07 1 1 3 -105 104 112 
$EndEntities
$Nodes
25 73 1 73
0 101 0 1
1
0.5 0.5 0
0 102 0 1
2
0 0.5 0
0 103 0 1
3
0.2 0.1 0
0 104 0 1
4
0.2 0.9 0
0 105 0 1
5
0.7 0.1 0
0 106 0 1
6
0.7 0.9 0
0 107 0 1
7
1 0.5 0
1 101 0 4
8
9
10
11
0.446748675962809 0.5 0
0.3764831428915573 0.5 0
0.2837671982210306 0.5 0
0.1614278029088217 0.5 0
1 102 0 4
12
13
14
15
0.4680492055776854 0.4573989407702472 0
0.4258898857349344 0.4011865143132458 0
0.3702603189326183 0.3270137585768245 0
0.2968566817452931 0.2291422423270574 0
1 103 0 4
16
17
18
19
0.5213005295031549 0.4573989409936903 0
0.5494067427972678 0.4011865144054644 0
0.5864931204443413 0.3270137591113174 0
0.6354288786601576 0.2291422426796846 0
1 104 0 4
20
21
22
23
0.5532513240371909 0.5 0
0.6235168571084427 0.5 0
0.7162328017789694 0.5 0
0.8385721970911783 0.5 0
1 105 0 4
24
25
26
27
0.5213005295031549 0.5426010590063097 0
0.5494067427972678 0.5988134855945355 0
0.5864931204443413 0.6729862408886826 0
0.6354288786601576 0.7708577573203155 0
1 106 0 4
28
29
30
31
0.4680492055776854 0.5426010592297528 0
0.4258898857349344 0.5988134856867542 0
0.3702603189326183 0.6729862414231755 0
0.2968566817452931 0.7708577576729426 0
1 107 0 2
32
33
0.06666666666666661 0.3666666666666668 0
0.1333333333333332 0.2333333333333335 0
1 108 0 2
34
35
0.1333333333333334 0.7666666666666668 0
0.06666666666666676 0.6333333333333335 0
1 109 0 2
36
37
0.3666666666666667 0.1 0
0.5333333333333333 0.1 0
1 110 0 2
38
39
0.5333333333333333 0.9 0
0.3666666666666666 0.9 0
1 111 0 2
40
41
0.7999999999999999 0.2333333333333334 0
0.9 0.3666666666666667 0
1 112 0 2
42
43
0.9 0.6333333333333333 0
0.7999999999999999 0.7666666666666667 0
2 1 0 5
44
45
46
47
48
0.2545058730034121 0.3279301274846993 0
0.3362870372282335 0.4200888430785426 0
0.4106915894790439 0.4557348596324071 0
0.2396717305000613 0.4190855208435048 0
0.1668352003957732 0.3586303152927304 0
2 2 0 5
49
50
51
52
53
0.2545058730034122 0.6720698725153007 0
0.3362870372282335 0.5799111569214574 0
0.4106915894790439 0.5442651403675929 0
0.2396717305000614 0.5809144791564952 0
0.1668352003957733 0.6413696847072696 0
2 3 0 5
54
55
56
57
58
0.5223864255305405 0.3457729341531999 0
0.5232063456624859 0.2577725063068034 0
0.4218604304957279 0.2243259238217625 0
0.4946748677436983 0.4089533434963209 0
0.4543205288120873 0.3287964126661777 0
2 4 0 5
59
60
61
62
63
0.521964045422076 0.657803743280416 0
0.5210190783151089 0.7412359536018246 0
0.4176558772118155 0.7761620184520797 0
0.4879082742781814 0.6014342995129798 0
0.4574495799824558 0.6747392903262049 0
2 5 0 5
64
65
66
67
68
0.6130645673710872 0.3877465176940896 0
0.6803773158923943 0.3384431651868181 0
0.7703360884345745 0.4001780871592998 0
0.5884024750434749 0.448812800869667 0
0.6653216842714904 0.4291967618183124 0
2 6 0 5
69
70
71
72
73
0.6099497973591158 0.6104453799325125 0
0.6798581875570657 0.6639015727459067 0
0.7674230026451532 0.6028927901035248 0
0.5760324045567243 0.5503678880971662 0
0.6643705525798054 0.5661785754499633 0
$EndNodes
$Elements
6 126 1 126
2 1 2 21
1 10 45 9 
2 45 46 9 
3 15 44 33 
4 11 2 32 
5 3 15 33 
6 13 46 45 
7 10 47 45 
8 11 48 47 
9 32 48 11 
10 44 48 33 
11 12 1 8 
12 13 45 14 
13 14 44 15 
14 14 45 44 
15 12 46 13 
16 9 46 8 
17 45 47 44 
18 11 47 10 
19 8 46 12 
20 33 48 32 
21 47 48 44 
2 2 2 21
22 9 50 10 
23 9 51 50 
24 34 49 31 
25 35 2 11 
26 31 4 34 
27 50 51 29 
28 50 52 10 
29 52 53 11 
30 11 53 35 
31 34 53 49 
32 1 28 8 
33 30 50 29 
34 31 49 30 
35 49 50 30 
36 29 51 28 
37 8 51 9 
38 49 52 50 
39 10 52 11 
40 28 51 8 
41 35 53 34 
42 49 53 52 
2 3 2 21
43 54 58 55 
44 55 58 56 
45 19 55 37 
46 55 56 37 
47 37 5 19 
48 15 56 14 
49 56 58 14 
50 15 3 36 
51 13 58 57 
52 37 56 36 
53 13 57 12 
54 57 58 54 
55 16 1 12 
56 36 56 15 
57 17 54 18 
58 16 57 17 
59 17 57 54 
60 12 57 16 
61 18 55 19 
62 14 58 13 
63 54 55 18 
2 4 2 21
64 61 63 60 
65 38 61 60 
66 27 6 38 
67 39 61 38 
68 39 4 31 
69 38 60 27 
70 62 63 29 
71 28 62 29 
72 59 63 62 
73 28 1 24 
74 30 61 31 
75 30 63 61 
76 26 59 25 
77 31 61 39 
78 25 62 24 
79 27 60 26 
80 59 62 25 
81 24 62 28 
82 26 60 59 
83 29 63 30 
84 60 63 59 
2 5 2 21
85 66 68 65 
86 40 66 65 
87 5 40 19 
88 41 66 40 
89 41 7 23 
90 40 65 19 
91 67 68 21 
92 20 67 21 
93 64 68 67 
94 20 1 16 
95 22 66 23 
96 22 68 66 
97 18 64 17 
98 23 66 41 
99 17 67 16 
100 19 65 18 
101 64 67 17 
102 16 67 20 
103 18 65 64 
104 21 68 22 
105 65 68 64 
2 6 2 21
106 69 73 70 
107 70 73 71 
108 27 70 43 
109 70 71 43 
110 6 27 43 
111 23 71 22 
112 71 73 22 
113 23 7 42 
114 21 73 72 
115 43 71 42 
116 21 72 20 
117 72 73 69 
118 24 1 20 
119 42 71 23 
120 25 69 26 
121 24 72 25 
122 25 72 69 
123 20 72 24 
124 26 70 27 
125 22 73 21 
126 69 70 26 
$EndElements
