$MeshFormat
4.1 0 8
$EndMeshFormat
$PhysicalNames
8
1 2 "Gamma_1"
1 3 "Gamma_2"
1 4 "Gamma_3"
1 5 "Gamma_4"
1 6 "Gamma_5"
1 7 "Gamma_6"
1 8 "Gamma_7"
2 1 "Omega"
$EndPhysicalNames
$Entities
7 7 1 0
1 0 0.5 0 0 
2 0.2 0.1 0 0 
3 0.7 0 0 0 
4 1 0.4 0 0 
5 0.8 0.9 0 0 
6 0.5 1 0 0 
7 0.2 0.8 0 0 
1 -1.000000000028756e-07 0.09999989999999997 -1e-07 0.2000001 0.5000000999999999 1e-07 1 2 2 1 -2 
2 0.1999999 -1.000000000028756e-07 -1e-07 0.7000000999999999 0.1000001 1e-07 1 3 2 2 -3 
3 0.6999999 -1.000000000028756e-07 -1e-07 1.0000001 0.4000001 1e-07 1 4 2 3 -4 
4 0.7999999000000001 0.3999999 -1e-07 1.0000001 0.9000001 1e-07 1 5 2 4 -5 
5 0.4999999 0.8999999000000001 -1e-07 0.8000001 1.0000001 1e-07 1 6 2 5 -6 
6 0.1999999 0.7999999000000001 -1e-07 0.5000000999999999 1.0000001 1e-07 1 7 2 6 -7 
7 -1.000000000028756e-07 0.4999999 -1e-07 0.2000001 0.8000001 1e-07 1 8 2 7 -1 
1 -9.999999994736442e-08 -9.999999994736442e-08 -1e-07 1.0000001 1.0000001 1e-07 1 1 7 1 2 3 4 5 6 7 
$EndEntities
$Nodes
15 15 1 15
0 1 0 1
1
0 0.5 0
0 2 0 1
2
0.2 0.1 0
0 3 0 1
3
0.7 0 0
0 4 0 1
4
1 0.4 0
0 5 0 1
5
0.8 0.9 0
0 6 0 1
6
0.5 1 0
0 7 0 1
7
0.2 0.8 0
1 1 0 0
1 2 0 1
8
0.45 0.05 0
1 3 0 0
1 4 0 1
9
0.9 0.65 0
1 5 0 0
1 6 0 0
1 7 0 0
2 1 0 6
10
11
12
13
14
15
0.7234129268851026 0.4797486863762939 0
0.3558957662372064 0.3088130995122721 0
0.5702979892267637 0.6930865901971246 0
0.6268592993027431 0.2751459354526685 0
0.3381389897991218 0.5636222455963523 0
0.5229209942901876 0.4640833114269423 0
$EndNodes
$Elements
8 28 1 28
1 1 1 1
1 1 2 
1 2 1 2
2 2 8 
3 8 3 
1 3 1 1
4 3 4 
1 4 1 2
5 4 9 
6 9 5 
1 5 1 1
7 5 6 
1 6 1 1
8 6 7 
1 7 1 1
9 7 1 
2 1 2 19
10 11 14 1 
11 9 12 10 
12 5 12 9 
13 7 12 6 
14 6 12 5 
15 7 14 12 
16 12 15 10 
17 9 10 4 
18 8 11 2 
19 1 14 7 
20 3 13 8 
21 8 13 11 
22 14 15 12 
23 11 15 14 
24 13 15 11 
25 10 15 13 
26 2 11 1 
27 4 13 3 
28 10 13 4 
$EndElements
