$MeshFormat
4.1 0 8
$EndMeshFormat
$PhysicalNames
7
1 2 "Outer_1"
1 3 "Outer_2"
1 4 "Outer_3"
1 5 "Outer_4"
1 6 "Outer_5"
1 7 "Outer_6"
2 1 "Domain"
$EndPhysicalNames
$Entities
18 29 12 0
1 0.32 0.5 0 0 
2 0 0.5 0 0 
3 0.35 0.35 0 0 
4 0.3875 0.35 0 0 
5 0.2 0.1 0 0 
6 0.2 0.9 0 0 
7 0.38 0.66 0 0 
8 0.3 0.6 0 0 
9 0.575 0.35 0 0 
10 0.7 0.1 0 0 
11 0.7 0.9 0 0 
12 0.5909090909090908 0.6818181818181819 0 0 
13 0.5 0.75 0 0 
14 0.5 0.5 0 0 
15 0.65 0.35 0 0 
16 0.6799999999999999 0.5 0 0 
17 1 0.5 0 0 
18 0.7 0.6 0 0 
1 -1.000000000028756e-07 0.4999999 -1e-07 0.3200001 0.5000000999999999 1e-07 0 2 1 -2 
2 0.3199999 0.3499999 -1e-07 0.3500001 0.5000000999999999 1e-07 0 2 1 -3 
3 0.3499999 0.3499999 -1e-07 0.3875001 0.3500001 1e-07 0 2 3 -4 
4 0.1999999 0.09999989999999997 -1e-07 0.3875001 0.3500001 1e-07 0 2 4 -5 
5 -1.000000000028756e-07 0.09999989999999997 -1e-07 0.2000001 0.5000000999999999 1e-07 1 2 2 2 -5 
6 -1.000000000028756e-07 0.4999999 -1e-07 0.2000001 0.9000001 1e-07 1 7 2 6 -2 
7 0.1999999 0.6599999000000001 -1e-07 0.3800001 0.9000001 1e-07 0 2 7 -6 
8 0.2999999 0.5999999 -1e-07 0.3800001 0.6600001 1e-07 0 2 7 -8 
9 0.2999999 0.4999999 -1e-07 0.3200001 0.6000000999999999 1e-07 0 2 8 -1 
10 0.3874999 0.3499999 -1e-07 0.5750000999999999 0.3500001 1e-07 0 2 4 -9 
11 0.5749999 0.09999989999999997 -1e-07 0.7000000999999999 0.3500001 1e-07 0 2 9 -10 
12 0.1999999 0.0999999 -1e-07 0.7000000999999999 0.1000001 1e-07 1 3 2 5 -10 
13 0.1999999 0.8999999000000001 -1e-07 0.7000000999999999 0.9000001 1e-07 1 6 2 11 -6 
14 0.590908990909091 0.6818180818181819 -1e-07 0.7000000999999999 0.9000001 1e-07 0 2 12 -11 
15 0.4999999 0.6818180818181819 -1e-07 0.5909091909090908 0.7500000999999999 1e-07 0 2 12 -13 
16 0.3799999 0.6599999000000001 -1e-07 0.5000000999999999 0.7500000999999999 1e-07 0 2 13 -7 
17 0.3799999 0.4999999 -1e-07 0.5000000999999999 0.6600001 1e-07 0 2 14 -7 
18 0.3199999 0.4999999 -1e-07 0.5000000999999999 0.5000000999999999 1e-07 0 2 14 -1 
19 0.3874999 0.3499999 -1e-07 0.5000000999999999 0.5000000999999999 1e-07 0 2 14 -4 
20 0.5749999 0.3499999 -1e-07 0.6500001 0.3500001 1e-07 0 2 9 -15 
21 0.6499999000000001 0.3499999 -1e-07 0.6800000999999999 0.5000000999999999 1e-07 0 2 15 -16 
22 0.6799999 0.4999999 -1e-07 1.0000001 0.5000000999999999 1e-07 0 2 16 -17 
23 0.6999999 0.0999999 -1e-07 1.0000001 0.5000000999999999 1e-07 1 4 2 10 -17 
24 0.4999999 0.3499999 -1e-07 0.5750000999999999 0.5000000999999999 1e-07 0 2 14 -9 
25 0.6999999 0.4999999 -1e-07 1.0000001 0.9000001 1e-07 1 5 2 17 -11 
26 0.6799999 0.4999999 -1e-07 0.7000000999999999 0.6000000999999999 1e-07 0 2 16 -18 
27 0.5909089909090909 0.5999999 -1e-07 0.7000000999999999 0.6818182818181818 1e-07 0 2 18 -12 
28 0.4999999 0.4999999 -1e-07 0.5909091909090909 0.6818182818181818 1e-07 0 2 14 -12 
29 0.4999999 0.4999999 -1e-07 0.6800000999999999 0.5000000999999999 1e-07 0 2 14 -16 
1 -1.000000000028756e-07 0.09999989999999997 -1e-07 0.3875001 0.5000000999999999 1e-07 1 1 5 1 5 -4 -3 -2 
2 -1.000000000028756e-07 0.4999999 -1e-07 0.3800001 0.9000001 1e-07 1 1 5 6 -1 -9 -8 7 
3 0.1999999 0.09999989999999997 -1e-07 0.7000000999999999 0.3500001 1e-07 1 1 4 4 12 -11 -10 
4 0.1999999 0.6599999000000001 -1e-07 0.7000000999999999 0.9000001 1e-07 1 1 5 13 -7 -16 -15 14 
5 0.2999999 0.4999999 -1e-07 0.5000000999999999 0.6600001 1e-07 1 1 4 9 -18 17 8 
6 0.3199999 0.3499999 -1e-07 0.5000000999999999 0.5000000999999999 1e-07 1 1 4 18 2 3 -19 
7 0.5749999 0.09999989999999997 -1e-07 1.0000001 0.5000000999999999 1e-07 1 1 5 11 23 -22 -21 -20 
8 0.3874999 0.3499999 -1e-07 0.5750000999999999 0.5000000999999999 1e-07 1 1 3 19 10 -24 
9 0.5909089909090909 0.4999999 -1e-07 1.0000001 0.9000001 1e-07 1 1 5 25 -14 -27 -26 22 
10 0.3799999 0.4999999 -1e-07 0.5909091909090909 0.7500000999999999 1e-07 1 1 4 16 -17 28 15 
11 0.4999999 0.3499999 -1e-07 0.6800000999999999 0.5000000999999999 1e-07 1 1 4 -29 24 20 21 
12 0.4999999 0.4999999 -1e-07 0.7000000999999999 0.6818182818181818 1e-07 1 1 4 -28 29 26 27 
$EndEntities
$Nodes
57 127 1 127
0 1 0 1
1
0.32 0.5 0
0 2 0 1
2
0 0.5 0
0 3 0 1
3
0.35 0.35 0
0 4 0 1
4
0.3875 0.35 0
0 5 0 1
5
0.2 0.1 0
0 6 0 1
6
0.2 0.9 0
0 7 0 1
7
0.38 0.66 0
0 8 0 1
8
0.3 0.6 0
0 9 0 1
9
0.575 0.35 0
0 10 0 1
10
0.7 0.1 0
0 11 0 1
11
0.7 0.9 0
0 12 0 1
12
0.5909090909090908 0.6818181818181819 0
0 13 0 1
13
0.5 0.75 0
0 14 0 1
14
0.5 0.5 0
0 15 0 1
15
0.65 0.35 0
0 16 0 1
16
0.6799999999999999 0.5 0
0 17 0 1
17
1 0.5 0
0 18 0 1
18
0.7 0.6 0
1 1 0 2
19
20
0.2143870539759379 0.5 0
0.107193526987969 0.5 0
1 2 0 2
21
22
0.3324561077494694 0.4377194612526528 0
0.3422692174866672 0.388653912566664 0
1 4 0 2
23
24
0.3256327831126953 0.2675103774835937 0
0.2628163915563478 0.183755188741797 0
1 5 0 3
25
26
27
0.04999999999999989 0.4000000000000002 0
0.09999999999999989 0.3000000000000002 0
0.15 0.2000000000000001 0
1 6 0 3
28
29
30
0.1500000000000001 0.8000000000000003 0
0.1000000000000001 0.7000000000000002 0
0.05000000000000004 0.6000000000000001 0
1 7 0 2
31
32
0.3206323764372283 0.739156831417029 0
0.2603161882186141 0.8195784157085144 0
1 8 0 1
33
0.3348220043513472 0.6261165032635103 0
1 9 0 1
34
0.3086858380845577 0.5565708095772114 0
1 10 0 1
35
0.4812499999999997 0.35 0
1 11 0 1
36
0.637146622758568 0.2257067544828639 0
1 12 0 3
37
38
39
0.3249999999999999 0.1 0
0.4499999999999994 0.1 0
0.5749999999999995 0.1 0
1 13 0 3
40
41
42
0.5750000000000001 0.9 0
0.4500000000000006 0.9 0
0.3250000000000004 0.9 0
1 14 0 1
43
0.6451009541475623 0.7902019082951246 0
1 15 0 1
44
0.5389694593026972 0.7207729055229771 0
1 16 0 1
45
0.4296851778769827 0.6972638834077369 0
1 17 0 2
46
47
0.4707918734502839 0.5389441687329548 0
0.4318689123141686 0.5908414502477752 0
1 18 0 2
48
49
0.4551487340855812 0.5 0
0.3965523702842984 0.5 0
1 19 0 2
50
51
0.4722165826209522 0.4629554434946029 0
0.435644008755009 0.4141920116733454 0
1 21 0 1
52
0.6675438922505306 0.4377194612526528 0
1 22 0 2
53
54
0.7856129460240621 0.5 0
0.892806473012031 0.5 0
1 23 0 3
55
56
57
0.7749999999999999 0.1999999999999999 0
0.8499999999999996 0.2999999999999995 0
0.9249999999999997 0.3999999999999997 0
1 24 0 2
58
59
0.5189707851123049 0.4620584297753904 0
0.5434392593625457 0.4131214812749086 0
1 25 0 3
60
61
62
0.925 0.5999999999999999 0
0.8500000000000003 0.6999999999999995 0
0.7750000000000002 0.7999999999999996 0
1 26 0 1
63
0.6913141619154423 0.5565708095772115 0
1 27 0 1
64
0.6543523728454295 0.6342357203659279 0
1 28 0 2
65
66
0.5220445625909524 0.5440891251819048 0
0.5515144077005876 0.6030288154011751 0
1 29 0 2
67
68
0.5448512659144188 0.5 0
0.6034476297157016 0.5 0
2 1 0 9
69
70
71
72
73
74
75
76
77
0.3060183889603889 0.3611438260579661 0
0.2017267684636553 0.2998593707136458 0
0.1611696008464438 0.386088387603072 0
0.2408998843155242 0.4203131508855348 0
0.2916316202701612 0.4029057057453518 0
0.2480643712971789 0.3568853124458627 0
0.2798749332622185 0.4521876635767079 0
0.2893864492299437 0.311303268483925 0
0.2505560349851012 0.2523114870806931 0
2 2 0 7
78
79
80
81
82
83
84
0.3046894395435881 0.6537752657147549 0
0.2379985796941296 0.6271820562196544 0
0.2490422211599326 0.6882946919863453 0
0.1560964989733052 0.5930682128257818 0
0.2561946617879884 0.5628035131037746 0
0.2112522126406506 0.7452724198511855 0
0.1840817704174055 0.6693722241336056 0
2 3 0 4
85
86
87
88
0.4307955067809748 0.2679809912004758 0
0.381015257573154 0.1835447820652603 0
0.5210884259079085 0.2763416829884263 0
0.4991743021701007 0.1922623684561711 0
2 4 0 6
89
90
91
92
93
94
0.4396332434761113 0.7641066960938715 0
0.558609526807859 0.7751446970506706 0
0.49908206310012 0.8117894650382154 0
0.370602788360108 0.8428826270562717 0
0.3736084344739012 0.7744831136194386 0
0.4315864525180411 0.8191378733878012 0
2 5 0 5
95
96
97
98
99
0.3527778759114892 0.5413601181165349 0
0.3444263112733219 0.5845008143002619 0
0.4291619333181483 0.539647196614779 0
0.3765130008790495 0.6059818263809424 0
0.3914477764564097 0.5684503640931649 0
2 6 0 4
100
101
102
103
0.3796449610147024 0.4246597785518547 0
0.4218018100437858 0.4627443605450911 0
0.3680858323728622 0.4651737196724221 0
0.3790116374512758 0.3855011405583728 0
2 7 0 5
104
105
106
107
108
0.7261868499363997 0.3816154018809057 0
0.7132953926978778 0.2993802426778379 0
0.8145769201215195 0.4081602241686466 0
0.73276250828803 0.4490914195811749 0
0.7781434907944211 0.3395790570254202 0
2 8 0 1
109
0.4903041271701623 0.4204654732436494 0
2 9 0 6
110
111
112
113
114
115
0.7044799079243863 0.6474840327167654 0
0.7490046002064549 0.6229398027303157 0
0.6633229542591399 0.6916782732244116 0
0.7341290974985054 0.5598262491389194 0
0.8227588527901756 0.5804610086448724 0
0.7389052333056969 0.7026119638138941 0
2 10 0 4
116
117
118
119
0.4877557176483124 0.6930811034241071 0
0.49495123482007 0.5976947054768512 0
0.524636110721336 0.6593663020194157 0
0.4581495255634783 0.6497079074293144 0
2 11 0 3
120
121
122
0.5712611618705618 0.4557494514446801 0
0.6066385139940227 0.4052701827938291 0
0.6171835028420276 0.4530440303298873 0
2 12 0 5
123
124
125
126
127
0.5770139370119464 0.5487836351719311 0
0.6221738304477336 0.5524944387119334 0
0.656700275322305 0.5785303276366363 0
0.6087773190395154 0.599815186517631 0
0.6543552436283269 0.5361512937552372 0
$EndNodes
$Elements
18 252 1 252
1 5 1 4
1 2 25 
2 25 26 
3 26 27 
4 27 5 
1 6 1 4
5 6 28 
6 28 29 
7 29 30 
8 30 2 
1 12 1 4
9 5 37 
10 37 38 
11 38 39 
12 39 10 
1 13 1 4
13 11 40 
14 40 41 
15 41 42 
16 42 6 
1 23 1 4
17 10 55 
18 55 56 
19 56 57 
20 57 17 
1 25 1 4
21 17 60 
22 60 61 
23 61 62 
24 62 11 
2 1 2 30
25 19 75 1 
26 20 71 19 
27 69 76 3 
28 71 72 19 
29 3 76 23 
30 25 71 20 
31 73 74 69 
32 27 77 70 
33 27 70 26 
34 70 71 26 
35 24 77 27 
36 5 24 27 
37 2 25 20 
38 26 71 25 
39 70 74 71 
40 23 77 24 
41 71 74 72 
42 21 73 22 
43 1 75 21 
44 72 74 73 
45 22 69 3 
46 72 75 19 
47 21 75 73 
48 22 73 69 
49 74 76 69 
50 70 76 74 
51 73 75 72 
52 70 77 76 
53 76 77 23 
54 4 3 23 
2 2 2 26
55 1 82 19 
56 81 82 79 
57 19 82 81 
58 31 80 78 
59 29 84 83 
60 81 84 29 
61 30 81 29 
62 19 81 20 
63 32 6 28 
64 29 83 28 
65 79 84 81 
66 30 2 20 
67 20 81 30 
68 31 83 80 
69 32 83 31 
70 80 84 79 
71 28 83 32 
72 83 84 80 
73 33 78 8 
74 8 82 34 
75 78 80 79 
76 78 79 8 
77 79 82 8 
78 34 82 1 
79 31 78 7 
80 7 78 33 
2 3 2 17
81 36 88 39 
82 87 88 36 
83 24 5 37 
84 9 87 36 
85 39 10 36 
86 24 86 23 
87 37 86 24 
88 23 85 4 
89 38 86 37 
90 23 86 85 
91 4 85 35 
92 39 88 38 
93 35 87 9 
94 86 88 85 
95 85 87 35 
96 38 88 86 
97 85 88 87 
2 4 2 23
98 32 93 92 
99 7 93 31 
100 40 90 43 
101 32 92 42 
102 89 93 45 
103 42 6 32 
104 31 93 32 
105 41 91 40 
106 43 11 40 
107 13 91 89 
108 42 92 41 
109 41 94 91 
110 89 94 93 
111 44 90 13 
112 91 94 89 
113 93 94 92 
114 90 91 13 
115 92 94 41 
116 45 93 7 
117 43 90 12 
118 12 90 44 
119 13 89 45 
120 40 91 90 
2 5 2 18
121 49 95 1 
122 47 97 46 
123 1 95 34 
124 49 99 95 
125 48 14 46 
126 97 99 49 
127 8 96 33 
128 34 96 8 
129 95 96 34 
130 48 97 49 
131 33 98 7 
132 96 98 33 
133 46 97 48 
134 47 99 97 
135 95 99 96 
136 98 99 47 
137 96 99 98 
138 7 98 47 
2 6 2 16
139 101 102 100 
140 51 101 100 
141 1 102 49 
142 100 103 51 
143 50 14 48 
144 50 101 51 
145 21 102 1 
146 49 101 48 
147 22 100 21 
148 49 102 101 
149 3 103 22 
150 4 103 3 
151 48 101 50 
152 22 103 100 
153 100 102 21 
154 51 103 4 
2 7 2 20
155 55 108 105 
156 106 107 104 
157 36 105 15 
158 53 106 54 
159 16 107 53 
160 54 106 57 
161 55 105 36 
162 15 104 52 
163 36 10 55 
164 57 17 54 
165 56 108 55 
166 57 106 56 
167 53 107 106 
168 104 108 106 
169 104 107 52 
170 15 105 104 
171 52 107 16 
172 106 108 56 
173 105 108 104 
174 15 9 36 
2 8 2 8
175 59 109 35 
176 51 4 35 
177 35 109 51 
178 51 109 50 
179 58 14 50 
180 58 109 59 
181 50 109 58 
182 35 9 59 
2 9 2 23
183 111 114 61 
184 43 115 62 
185 61 114 60 
186 60 114 54 
187 61 115 111 
188 12 112 43 
189 110 115 112 
190 54 114 53 
191 17 60 54 
192 62 11 43 
193 62 115 61 
194 64 112 12 
195 18 110 64 
196 53 114 113 
197 18 111 110 
198 63 113 18 
199 18 113 111 
200 110 112 64 
201 113 114 111 
202 111 115 110 
203 53 113 16 
204 16 113 63 
205 112 115 43 
2 10 2 16
206 118 119 117 
207 12 118 66 
208 116 119 118 
209 66 118 117 
210 7 119 45 
211 13 116 44 
212 65 117 46 
213 66 117 65 
214 46 117 47 
215 46 14 65 
216 44 118 12 
217 116 118 44 
218 45 119 116 
219 117 119 47 
220 45 116 13 
221 47 119 7 
2 11 2 13
222 52 121 15 
223 68 122 16 
224 16 122 52 
225 9 121 59 
226 67 120 68 
227 67 14 58 
228 59 121 120 
229 58 120 67 
230 59 120 58 
231 15 121 9 
232 52 122 121 
233 121 122 120 
234 120 122 68 
2 12 2 18
235 12 126 64 
236 66 126 12 
237 16 127 68 
238 68 127 124 
239 65 123 66 
240 65 14 67 
241 124 126 123 
242 123 126 66 
243 64 125 18 
244 68 123 67 
245 67 123 65 
246 63 127 16 
247 68 124 123 
248 64 126 125 
249 18 125 63 
250 125 127 63 
251 124 127 125 
252 125 126 124 
$EndElements
